<svg xmlns:xlink="http://www.w3.org/1999/xlink" xmlns="http://www.w3.org/2000/svg" version="1.1" x="0" y="0" width="144px" height="72px" viewBox="0 0 144 72" preserveAspectRatio="none">
  <g transform="translate(0,0)">
    <polygon points="4,17 6,17 6,7 2,7 2,9 4,9 "/>
    <path d="M14,15h-4v-2h2c1.1,0,2-0.9,2-2V9c0-1.1-0.9-2-2-2H8v2h4v2h-2c-1.1,0-2,0.9-2,2v4h6V15z"/>
    <path d="M22,15v-1.5c0-0.8-0.7-1.5-1.5-1.5c0.8,0,1.5-0.7,1.5-1.5V9c0-1.1-0.9-2-2-2h-4v2h4v2h-2v2h2v2h-4v2h4  C21.1,17,22,16.1,22,15z"/>
  </g>
  <g transform="translate(24,0)">
    <path d="M15.4,10.5V9c0-1.1-0.9-2-2-2h-2H9.9H9.4v10h0.5h1.5h2c1.1,0,2-0.9,2-2v-1.5c0-0.8-0.7-1.5-1.5-1.5  C14.7,12,15.4,11.3,15.4,10.5z M13.4,15h-2v-2h2V15z M13.4,11h-2V9h2V11z"/>
    <path d="M6.4,7H5.9h0H4.4c-1.1,0-2,0.9-2,2v8h2v-4h1.5l0,0h0.5v4h2V9C8.4,7.9,7.5,7,6.4,7z M6.4,11H5.9l0,0H4.4V9h1.5h0h0.5V11z"/>
    <path d="M18.4,7h0.5h1h0.5c1.1,0,2,0.9,2,2v0.9h-2V9h-0.5h-1h-0.5v0.4V11v2v1.6V15h0.5h1h0.5v-0.9h2V15c0,1.1-0.9,2-2,2h-0.5h-1  h-0.5c-1.1,0-2-0.9-2-2v-2v-2V9C16.4,7.9,17.3,7,18.4,7z"/>
  </g>
  <g transform="translate(48,0)">
    <path d="M17,12 L12,12 L12,17 L17,17 L17,12 L17,12 Z M16,1 L16,3 L8,3 L8,1 L6,1 L6,3 L5,3 C3.89,3 3.01,3.9 3.01,5 L3,19 C3,20.1 3.89,21 5,21 L19,21 C20.1,21 21,20.1 21,19 L21,5 C21,3.9 20.1,3 19,3 L18,3 L18,1 L16,1 L16,1 Z M19,19 L5,19 L5,8 L19,8 L19,19 L19,19 Z" fill="#000000"/>
  </g>
  <g transform="translate(72,0)">
    <rect x="11.6" y="6.6" width="2" height="12"/>
    <polygon points="8.4,9.6 6,11.8 3.7,9.6 2.6,10.6 4.7,13.1 2.6,15.6 3.7,16.5 6,14.2 8.4,16.5 9.6,15.3 7.2,13.1 9.6,10.8 "/>
    <polygon points="21.6,9.6 18.6,13.6 16.6,11.6 15.6,12.6 18.6,15.6 18.6,15.6 22.6,10.6 "/>
  </g>
  <g transform="translate(96,0)">
    <path d="M11.755102,1.95918367 C6.34285714,1.95918367 1.95918367,6.34285714 1.95918367,11.755102 C1.95918367,17.1673469 6.34285714,21.5510204 11.755102,21.5510204 C17.1673469,21.5510204 21.5510204,17.1673469 21.5510204,11.755102 C21.5510204,6.34285714 17.1673469,1.95918367 11.755102,1.95918367 L11.755102,1.95918367 Z M10.7755102,19.5232653 C6.91102041,19.0432653 3.91836735,15.7518367 3.91836735,11.755102 C3.91836735,11.1526531 3.99183673,10.564898 4.12408163,10.0016327 L8.81632653,14.6938776 L8.81632653,15.6734694 C8.81632653,16.7559184 9.69306122,17.6326531 10.7755102,17.6326531 L10.7755102,19.5232653 L10.7755102,19.5232653 Z M17.5297959,17.04 C17.28,16.2465306 16.5453061,15.6734694 15.6734694,15.6734694 L14.6938776,15.6734694 L14.6938776,12.7346939 C14.6938776,12.1959184 14.2530612,11.755102 13.7142857,11.755102 L7.83673469,11.755102 L7.83673469,9.79591837 L9.79591837,9.79591837 C10.3346939,9.79591837 10.7755102,9.35510204 10.7755102,8.81632653 L10.7755102,6.85714286 L12.7346939,6.85714286 C13.8171429,6.85714286 14.6938776,5.98040816 14.6938776,4.89795918 L14.6938776,4.49142857 C17.5640816,5.6522449 19.5918367,8.46367347 19.5918367,11.755102 C19.5918367,13.7926531 18.8081633,15.6440816 17.5297959,17.04 L17.5297959,17.04 Z" fill="#000000"/>
  </g>
  <g transform="translate(0,24)">
    <g stroke="none" stroke-width="1" fill="none" fill-rule="evenodd">
      <g transform="translate(-486.000000, -92.000000)">
        <g>
          <g transform="translate(465.000000, 0.000000)"/>
        </g>
        <g transform="translate(489.000000, 94.000000)" fill="#000000">
          <rect x="0" y="0" width="2" height="18"/>
          <rect transform="translate(10.000000, 17.000000) rotate(-270.000000) translate(-10.000000, -17.000000) " x="9" y="9" width="2" height="16"/>
          <path d="M17,7.07692308 L10.5714286,14 L6.28571429,9.8974359 L2,14 L2,10.9230769 L6.28571429,6.82051282 L10.5714286,10.9230769 L17,4 L17,7.07692308 L17,7.07692308 Z"/>
        </g>
      </g>
    </g>
  </g>
  <g transform="translate(24,24)">
    <g stroke="none" stroke-width="1" fill="none" fill-rule="evenodd">
      <g transform="translate(-530.000000, -92.000000)">
        <g>
          <g transform="translate(465.000000, 0.000000)"/>
        </g>
        <g transform="translate(533.000000, 94.000000)" fill="#000000">
          <rect x="0" y="0" width="2" height="18"/>
          <rect x="4" y="8" width="2" height="10"/>
          <rect x="8" y="5" width="2" height="11"/>
          <rect x="12" y="11" width="2" height="6"/>
          <rect transform="translate(10.000000, 17.000000) rotate(-270.000000) translate(-10.000000, -17.000000) " x="9" y="9" width="2" height="16"/>
        </g>
      </g>
    </g>
  </g>
  <g transform="translate(48,24)">
    <g stroke="none" stroke-width="1" fill="none" fill-rule="evenodd">
      <g transform="translate(-621.000000, -92.000000)">
        <g>
          <g transform="translate(465.000000, 0.000000)"/>
        </g>
        <g transform="translate(623.000000, 94.000000)" fill="#000000">
          <path d="M9.79102041,0 C4.37877551,0 0,4.38367347 0,9.79591837 C0,15.2081633 4.37877551,19.5918367 9.79102041,19.5918367 C15.2032653,19.5918367 19.5918367,15.2081633 19.5918367,9.79591837 C19.5918367,4.38367347 15.2032653,0 9.79102041,0 L9.79102041,0 Z M9.79591837,17.6326531 C5.46612245,17.6326531 1.95918367,14.1257143 1.95918367,9.79591837 C1.95918367,5.46612245 5.46612245,1.95918367 9.79591837,1.95918367 C14.1257143,1.95918367 17.6326531,5.46612245 17.6326531,9.79591837 C17.6326531,14.1257143 14.1257143,17.6326531 9.79591837,17.6326531 L9.79591837,17.6326531 Z"/>
          <rect x="9" y="2" width="2" height="16"/>
          <rect transform="translate(6.000000, 10.000000) rotate(-90.000000) translate(-6.000000, -10.000000) " x="5" y="6" width="2" height="8"/>
        </g>
      </g>
    </g>
  </g>
  <g transform="translate(72,24)">
    <g stroke="none" stroke-width="1" fill="none" fill-rule="evenodd">
      <g transform="translate(-666.000000, -92.000000)">
        <g>
          <g transform="translate(465.000000, 0.000000)"/>
        </g>
        <g transform="translate(669.000000, 95.000000)" fill="#000000">
          <path d="M-7.28306304e-14,17.9591837 L-7.2710665e-14,16 L17.6326531,16 L17.6326531,17.9591837 L-7.28306304e-14,17.9591837 L-7.28306304e-14,17.9591837 Z"/>
          <path d="M-7.28306304e-14,1.95918367 L-7.2710665e-14,2.66453526e-15 L17.6326531,3.75210067e-15 L17.6326531,1.95918367 L-7.28306304e-14,1.95918367 L-7.28306304e-14,1.95918367 Z"/>
          <path d="M-7.28306304e-14,6.97959184 L-7.27706477e-14,6 L17.6326531,6 L17.6326531,6.97959184 L-7.28306304e-14,6.97959184 L-7.28306304e-14,6.97959184 Z"/>
          <path d="M-7.28306304e-14,11.9795918 L-7.27706477e-14,11 L17.6326531,11 L17.6326531,11.9795918 L-7.28306304e-14,11.9795918 L-7.28306304e-14,11.9795918 Z"/>
          <rect x="6" y="0" width="0.979591837" height="17.6326531"/>
          <rect x="11" y="0" width="0.979591837" height="17.6326531"/>
          <rect x="0" y="0" width="1.95918367" height="17.6326531"/>
          <rect x="16" y="0" width="1.95918367" height="17.6326531"/>
        </g>
      </g>
    </g>
  </g>
  <g transform="translate(96,24)">
    <g stroke="none" stroke-width="1" fill="none" fill-rule="evenodd">
      <g transform="translate(-756.000000, -92.000000)">
        <g>
          <g transform="translate(465.000000, 0.000000)"/>
        </g>
        <g transform="translate(759.000000, 95.000000)">
          <rect fill="#000000" x="2" y="2" width="14" height="1"/>
          <rect fill="#000000" x="4" y="12" width="4" height="2"/>
          <path d="M13,0 L5,0 L3,0 L2,0 C0.895,0 0.01,0.895 0.01,2 L0,16 C0,17.105 0.895,18 2,18 L16,18 C17.105,18 18,17.105 18,16 L18,2 C18,0.895 17.105,0 16,0 L15,0 L13,0 Z" fill="#000000"/>
          <path d="M2,16 L2,2 L16,2 L16,16 L2,16 Z" fill="#FFFFFF"/>
          <ellipse fill="#000000" cx="10.4323682" cy="13" rx="0.494797557" ry="1"/>
          <path d="M12.4305373,5.57591011 L10.8610745,6.61314928 L10.8610745,5.11952488 L12.4305373,4.08228571 L14,4.08228571 L14,13.9291429 L12.4305373,13.9291429 L12.4305373,5.57591011 Z" fill="#000000"/>
          <path d="M4,12.5302857 L6.8816365,7.77142857 C7.0278072,7.5337131 7.11133206,7.32571518 7.13221359,7.14742857 C7.15309511,6.96914197 7.16353572,6.7474299 7.16353572,6.48228571 C7.16353572,6.36342798 7.15831542,6.23771495 7.14787465,6.10514286 C7.13743389,5.97257077 7.10872222,5.8560005 7.06173878,5.75542857 C7.01475534,5.65485664 6.93906094,5.57028606 6.8346533,5.50171429 C6.73024565,5.43314251 6.57885684,5.39885714 6.38048233,5.39885714 C6.14034475,5.39885714 5.94980366,5.45828512 5.80885335,5.57714286 C5.66790303,5.69600059 5.59742893,5.86971314 5.59742893,6.09828571 L5.59742893,6.89371429 L4,6.89371429 L4,6.12571429 C4,5.83314139 4.06264365,5.55885842 4.18793282,5.30285714 C4.31322199,5.04685586 4.48288186,4.8228581 4.69691752,4.63085714 C4.91095319,4.43885618 5.16413792,4.28571486 5.45647932,4.17142857 C5.74882071,4.05714229 6.06203894,4 6.39614339,4 C6.81377396,4 7.17136477,4.06628505 7.46892655,4.19885714 C7.76648833,4.33142923 8.0118426,4.51199886 8.20499674,4.74057143 C8.39815088,4.969144 8.53909908,5.22971282 8.62784557,5.52228571 C8.71659207,5.81485861 8.76096465,6.12571264 8.76096465,6.45485714 C8.76096465,6.69257262 8.75574435,6.89142777 8.74530358,7.05142857 C8.73486282,7.21142937 8.7139816,7.3645707 8.68265931,7.51085714 C8.65133702,7.65714359 8.59913398,7.80342784 8.52604863,7.94971429 C8.45296328,8.09600073 8.35377751,8.27428466 8.22848834,8.48457143 L5.87932815,12.448 L8.76096465,12.448 L8.76096465,13.8468571 L4,13.8468571 L4,12.5302857 Z" fill="#000000"/>
        </g>
      </g>
    </g>
  </g>
  <g transform="translate(120,24)">
    <style type="text/css">.scatter .st0{fill:none;}</style>
    <g class="scatter">
      <g transform="translate(-801.000000, -92.000000)">
        <g>
          <g transform="translate(465.000000, 0.000000)">
          </g>
        </g>
        <g transform="translate(801.000000, 92.000000)">
          <circle cx="16.5" cy="13.9" r="2.1"/>
          <rect x="3" y="2" width="2" height="18"/>
          <rect x="5" y="18" width="16" height="2"/>
          <path class="st0" d="M0,0h23.5v23.5H0V0z"/>
        </g>
      </g>
    </g>
    <circle cx="9.4" cy="11.6" r="2.1"/>
    <circle cx="15.3" cy="5.8" r="2.1"/>
  </g>
  <g transform="translate(0,48)">
    <g stroke="none" stroke-width="1" fill="none" fill-rule="evenodd">
      <g transform="translate(-892.000000, -92.000000)">
        <g>
          <g transform="translate(465.000000, 0.000000)">
            <g transform="translate(427.000000, 93.000000)">
              <g>
                <path d="M0,0 L23.5102041,0 L23.5102041,23.5102041 L0,23.5102041 L0,0 Z"/>
                <rect stroke="#000000" x="3" y="3" width="18" height="17"/>
                <circle fill="#000000" cx="3.45918367" cy="3.45918367" r="1.5"/>
                <circle fill="#000000" cx="20.4591837" cy="3.45918367" r="1.5"/>
                <circle fill="#000000" cx="3.45918367" cy="19.4591837" r="1.5"/>
                <circle fill="#000000" cx="20.4591837" cy="19.4591837" r="1.5"/>
              </g>
              <path d="M11.0056957,16 L12.9645192,16 L12.964519,8.97705078 L15.9577026,8.97705078 L15.9577026,7 L8,7 L8,8.97705078 L11.0056956,8.97705078 L11.0056957,16 Z" fill="#000000"/>
            </g>
          </g>
        </g>
      </g>
    </g>
  </g>
  <g transform="translate(24,48)">
    <path d="M10 18h4v-2h-4v2zM3 6v2h18V6H3zm3 7h12v-2H6v2z"/>
    <path d="M0 0h24v24H0z" fill="none"/>
  </g>
  <g transform="translate(48,48)">
    <path d="M0 0h24v24H0z" fill="none"/>
    <path d="M19 3h-4.18C14.4 1.84 13.3 1 12 1c-1.3 0-2.4.84-2.82 2H5c-1.1 0-2 .9-2 2v14c0 1.1.9 2 2 2h14c1.1 0 2-.9 2-2V5c0-1.1-.9-2-2-2zm-7 0c.55 0 1 .45 1 1s-.45 1-1 1-1-.45-1-1 .45-1 1-1zm-2 14l-4-4 1.41-1.41L10 14.17l6.59-6.59L18 9l-8 8z"/>
  </g>
</svg>